<svg width="300" height="200" viewBox="0 0 300 200" fill="none" xmlns="http://www.w3.org/2000/svg">
<g clip-path="url(#clip0_1_2)">
<rect width="300" height="200" fill="white"/>
<rect width="300" height="200" fill="#DEE9E7"/>
<g clip-path="url(#clip1_1_2)">
<path d="M149.503 153C173.716 153 193.345 133.389 193.345 109.199C193.345 85.0079 173.716 65.3974 149.503 65.3974C125.289 65.3974 105.66 85.0079 105.66 109.199C105.66 133.389 125.289 153 149.503 153Z" fill="white"/>
<path d="M167.624 110.028H150.343V120.391C157.298 120.515 161.231 120.85 166.511 122.173C167.202 118.748 167.532 115.163 167.624 110.028Z" fill="#46B68E"/>
<path d="M180.565 110.028H169.357C169.269 115.498 168.985 119.047 168.243 122.652C169.161 122.899 170.068 123.167 170.976 123.44C173.259 124.053 175.445 124.759 177.513 125.552C179.652 119.933 180.317 115.014 180.56 110.028H180.565Z" fill="#46B68E"/>
<path d="M187.71 130.739C191.185 124.61 193.196 117.569 193.34 110.028H182.292C182.081 115.189 181.421 120.401 179.209 126.237C182.127 127.463 184.787 128.859 187.143 130.409C187.334 130.517 187.52 130.625 187.71 130.739Z" fill="#46B68E"/>
<path d="M148.636 120.391V110.028H131.37C131.458 115.163 131.778 118.748 132.484 122.173C137.763 120.85 141.682 120.515 148.631 120.391H148.636Z" fill="#46B68E"/>
<path d="M130.757 122.652C130.015 119.052 129.736 115.503 129.643 110.028H118.42C118.667 115.014 119.327 119.933 121.487 125.557C123.493 124.79 125.612 124.105 127.818 123.502C128.788 123.203 129.767 122.915 130.757 122.652Z" fill="#46B68E"/>
<path d="M119.791 126.237C117.564 120.401 116.914 115.189 116.687 110.028H105.66C105.804 117.569 107.815 124.61 111.29 130.739C111.511 130.605 111.733 130.481 111.955 130.353C114.285 128.823 116.919 127.448 119.796 126.242L119.791 126.237Z" fill="#46B68E"/>
<path fill-rule="evenodd" clip-rule="evenodd" d="M139.759 77.4551C143.094 78.2123 145.564 78.4595 148.652 78.5162V65.9434C148.652 65.9434 148.265 66.1185 147.822 66.613C144.734 70.1463 142.032 73.6745 139.759 77.4551Z" fill="#46B68E"/>
<path fill-rule="evenodd" clip-rule="evenodd" d="M131.37 108.369C131.458 103.229 131.793 99.6494 132.484 96.219C137.763 97.5427 141.697 97.8775 148.652 98.0012V108.364H131.37V108.369Z" fill="#46B68E"/>
<path fill-rule="evenodd" clip-rule="evenodd" d="M138.011 77.1049C140.13 73.5921 142.651 70.2339 145.497 66.9684C146.291 66.0515 147.121 65.3974 147.121 65.3974C147.121 65.3974 145.76 65.7683 144.6 66.4379C140.697 68.699 136.603 71.6452 132.881 75.3331C134.242 75.9151 135.634 76.3941 137.382 76.8525C137.609 76.9246 137.82 76.9761 138.052 77.0276L138.016 77.0997L138.011 77.1049Z" fill="#46B68E"/>
<path fill-rule="evenodd" clip-rule="evenodd" d="M138.011 77.1049C140.13 73.5921 142.651 70.2339 145.497 66.9684C146.291 66.0515 147.121 65.3974 147.121 65.3974C147.121 65.3974 145.76 65.7683 144.6 66.4379C140.697 68.699 136.603 71.6452 132.881 75.3331C134.242 75.9151 135.634 76.3941 137.382 76.8525C137.609 76.9246 137.82 76.9761 138.052 77.0276" fill="#46B68E"/>
<path fill-rule="evenodd" clip-rule="evenodd" d="M132.891 94.4575C133.438 92.1809 134.18 89.8322 135.17 87.0405C136.145 84.254 137.325 81.6375 138.789 79.0415C142.599 79.9584 145.162 80.1901 148.657 80.2262V96.2757C141.95 96.1366 138.119 95.7812 132.897 94.4575" fill="#46B68E"/>
<path fill-rule="evenodd" clip-rule="evenodd" d="M122.214 91.0323C125.179 92.217 128.143 93.1853 131.18 94.0145C131.742 91.7379 132.469 89.4768 133.438 86.6697C134.428 83.8626 135.644 81.2512 137.129 78.6346C137.042 78.6192 136.969 78.5986 136.882 78.5831C134.82 78.0166 133.123 77.4191 131.551 76.6928C128.782 79.6236 126.328 82.9251 124.261 86.7933C123.452 88.2715 122.812 89.6365 122.214 91.0272" fill="#46B68E"/>
<path fill-rule="evenodd" clip-rule="evenodd" d="M121.544 92.6908C119.358 98.3772 118.683 103.337 118.44 108.369H129.643C129.731 102.894 130.015 99.3455 130.757 95.7452C127.633 94.9005 124.581 93.9115 121.544 92.6908Z" fill="#46B68E"/>
<path fill-rule="evenodd" clip-rule="evenodd" d="M112.207 86.1752C115.012 87.8183 117.729 89.1574 120.518 90.3421C121.101 88.9823 121.771 87.6071 122.529 86.1752C124.648 82.2401 127.153 78.8664 129.978 75.8842C128.406 75.0395 126.89 74.0299 125.179 72.7577C119.904 76.2756 115.527 80.7928 112.207 86.1752Z" fill="#46B68E"/>
<path fill-rule="evenodd" clip-rule="evenodd" d="M111.29 87.6586C107.815 93.7879 105.804 100.834 105.66 108.369H116.708C116.919 103.162 117.59 97.8981 119.848 92.0006C116.956 90.7645 114.233 89.4047 111.29 87.6586Z" fill="#46B68E"/>
<path fill-rule="evenodd" clip-rule="evenodd" d="M126.658 71.7894C131.494 68.8072 136.964 66.7572 142.79 65.8558C138.908 68.0655 134.917 70.9395 131.247 74.5759C129.659 73.7827 128.303 72.9329 126.658 71.7894Z" fill="#46B68E"/>
<path fill-rule="evenodd" clip-rule="evenodd" d="M159.257 77.4551C155.921 78.2123 153.431 78.4595 150.364 78.5162V65.9434C150.364 65.9434 150.75 66.1185 151.173 66.613C154.261 70.1463 156.963 73.6745 159.257 77.4551Z" fill="#46B68E"/>
<path fill-rule="evenodd" clip-rule="evenodd" d="M167.624 108.369C167.537 103.229 167.217 99.6494 166.511 96.219C161.237 97.5427 157.313 97.8775 150.364 98.0012V108.364H167.624V108.369Z" fill="#46B68E"/>
<path fill-rule="evenodd" clip-rule="evenodd" d="M161.01 77.1049C158.875 73.5921 156.349 70.2339 153.508 66.9684C152.714 66.0515 151.905 65.3974 151.905 65.3974C151.905 65.3974 153.246 65.7683 154.411 66.4379C158.313 68.699 162.407 71.6452 166.129 75.3331C164.768 75.9151 163.392 76.3941 161.644 76.8525C161.412 76.9246 161.185 76.9761 160.953 77.0276L161.01 77.0997V77.1049Z" fill="#46B68E"/>
<path fill-rule="evenodd" clip-rule="evenodd" d="M161.01 77.1049C158.875 73.5921 156.349 70.2339 153.508 66.9684C152.714 66.0515 151.905 65.3974 151.905 65.3974C151.905 65.3974 153.246 65.7683 154.411 66.4379C158.313 68.699 162.407 71.6452 166.129 75.3331C164.768 75.9151 163.392 76.3941 161.644 76.8525C161.412 76.9246 161.185 76.9761 160.953 77.0276" fill="#46B68E"/>
<path fill-rule="evenodd" clip-rule="evenodd" d="M166.109 94.4575C165.562 92.1809 164.82 89.8322 163.851 87.0405C162.881 84.254 161.68 81.6375 160.216 79.0415C156.406 79.9584 153.844 80.1901 150.369 80.2262V96.2757C157.061 96.1366 160.886 95.7812 166.114 94.4575" fill="#46B68E"/>
<path fill-rule="evenodd" clip-rule="evenodd" d="M176.786 91.0323C173.821 92.217 170.857 93.1853 167.82 94.0145C167.274 91.7379 166.531 89.4768 165.562 86.6697C164.572 83.8626 163.371 81.2512 161.891 78.6346C161.979 78.6192 162.051 78.5986 162.123 78.5831C164.206 78.0166 165.902 77.4191 167.47 76.6928C170.223 79.6236 172.697 82.9251 174.76 86.7933C175.554 88.2715 176.203 89.6365 176.791 91.0272" fill="#46B68E"/>
<path fill-rule="evenodd" clip-rule="evenodd" d="M177.456 92.6908C179.663 98.3772 180.333 103.337 180.58 108.369H169.357C169.269 102.894 168.985 99.3455 168.243 95.7452C171.383 94.9005 174.419 93.9115 177.456 92.6908Z" fill="#46B68E"/>
<path fill-rule="evenodd" clip-rule="evenodd" d="M186.793 86.1752C183.988 87.8183 181.287 89.1574 178.482 90.3421C177.92 88.9823 177.229 87.6071 176.471 86.1752C174.373 82.2401 171.847 78.8664 169.042 75.8842C170.594 75.0395 172.115 74.0299 173.842 72.7577C179.101 76.2756 183.478 80.7928 186.798 86.1752" fill="#46B68E"/>
<path fill-rule="evenodd" clip-rule="evenodd" d="M187.71 87.6586C191.185 93.7828 193.196 100.829 193.34 108.369H182.307C182.075 103.162 181.426 97.8981 179.147 92.0006C182.044 90.7645 184.761 89.4047 187.71 87.6586Z" fill="#46B68E"/>
<path fill-rule="evenodd" clip-rule="evenodd" d="M172.337 71.7894C167.501 68.8072 162.031 66.7572 156.205 65.8558C160.087 68.0655 164.093 70.9395 167.748 74.5759C169.352 73.7827 170.692 72.9329 172.337 71.7894Z" fill="#46B68E"/>
<path fill-rule="evenodd" clip-rule="evenodd" d="M149.905 46L110.908 120.484H188.901L149.905 46Z" fill="#7AA1D4"/>
<path fill-rule="evenodd" clip-rule="evenodd" d="M149.497 120.716C165.273 120.716 179.312 124.816 188.303 131.192L149.905 57.8465L111.949 130.342C120.967 124.455 134.438 120.716 149.497 120.716Z" fill="#006FB9"/>
<path fill-rule="evenodd" clip-rule="evenodd" d="M176.786 127.365C173.821 126.18 170.857 125.212 167.82 124.383C167.258 126.659 166.531 128.921 165.562 131.728C164.572 134.535 163.356 137.146 161.871 139.763C161.958 139.783 162.031 139.799 162.118 139.814C164.186 140.381 165.877 140.983 167.449 141.705C170.223 138.774 172.672 135.472 174.739 131.609C175.548 130.126 176.188 128.766 176.786 127.37" fill="#46B68E"/>
<path fill-rule="evenodd" clip-rule="evenodd" d="M186.793 132.217C183.988 130.574 181.271 129.235 178.482 128.05C177.899 129.41 177.229 130.785 176.471 132.217C174.352 136.152 171.847 139.526 169.022 142.508C170.594 143.353 172.115 144.362 173.827 145.635C179.101 142.122 183.478 137.6 186.798 132.217" fill="#46B68E"/>
<path fill-rule="evenodd" clip-rule="evenodd" d="M122.214 127.365C125.179 126.18 128.143 125.212 131.18 124.383C131.726 126.659 132.469 128.921 133.438 131.728C134.428 134.535 135.629 137.146 137.109 139.763C137.021 139.783 136.949 139.799 136.882 139.814C134.799 140.381 133.103 140.983 131.535 141.705C128.782 138.774 126.313 135.472 124.245 131.609C123.452 130.126 122.802 128.766 122.219 127.37" fill="#46B68E"/>
<path fill-rule="evenodd" clip-rule="evenodd" d="M112.207 132.217C115.012 130.574 117.713 129.235 120.518 128.05C121.08 129.41 121.771 130.785 122.529 132.217C124.627 136.152 127.153 139.526 129.958 142.508C128.406 143.353 126.885 144.362 125.158 145.635C119.899 142.122 115.522 137.6 112.207 132.217Z" fill="#46B68E"/>
<path fill-rule="evenodd" clip-rule="evenodd" d="M159.241 140.942C155.906 140.185 153.436 139.938 150.348 139.881V152.454C150.348 152.454 150.735 152.279 151.178 151.784C154.266 148.256 156.968 144.723 159.241 140.942Z" fill="#46B68E"/>
<path fill-rule="evenodd" clip-rule="evenodd" d="M160.989 141.298C158.87 144.81 156.349 148.164 153.503 151.434C152.709 152.351 151.879 153.005 151.879 153.005C151.879 153.005 153.24 152.634 154.4 151.965C158.303 149.704 162.397 146.757 166.119 143.064C164.758 142.482 163.366 142.003 161.618 141.545C161.386 141.473 161.175 141.421 160.948 141.37" fill="#46B68E"/>
<path fill-rule="evenodd" clip-rule="evenodd" d="M172.337 146.608C167.501 149.59 162.031 151.64 156.205 152.542C160.087 150.337 164.077 147.458 167.748 143.822C169.336 144.615 170.692 145.465 172.337 146.613" fill="#46B68E"/>
<path fill-rule="evenodd" clip-rule="evenodd" d="M139.738 140.942C143.074 140.185 145.564 139.938 148.631 139.881V152.454C148.631 152.454 148.245 152.279 147.822 151.784C144.734 148.256 142.032 144.723 139.738 140.942Z" fill="#46B68E"/>
<path fill-rule="evenodd" clip-rule="evenodd" d="M137.99 141.298C140.125 144.81 142.651 148.164 145.492 151.434C146.286 152.351 147.095 153.005 147.095 153.005C147.095 153.005 145.754 152.634 144.589 151.965C140.687 149.704 136.593 146.757 132.871 143.064C134.232 142.482 135.608 142.003 137.356 141.545C137.588 141.473 137.815 141.421 138.047 141.37" fill="#46B68E"/>
<path fill-rule="evenodd" clip-rule="evenodd" d="M126.658 146.608C131.494 149.59 136.964 151.64 142.79 152.542C138.908 150.337 134.902 147.458 131.247 143.822C129.643 144.615 128.303 145.465 126.658 146.613" fill="#46B68E"/>
<path fill-rule="evenodd" clip-rule="evenodd" d="M166.109 123.94C165.562 126.217 164.82 128.565 163.835 131.357C162.861 134.149 161.68 136.76 160.216 139.356C156.406 138.439 153.844 138.207 150.348 138.171V122.122C157.055 122.261 160.886 122.616 166.109 123.94Z" fill="#46B68E"/>
<path fill-rule="evenodd" clip-rule="evenodd" d="M132.891 123.94C133.438 126.217 134.18 128.565 135.149 131.357C136.124 134.149 137.32 136.76 138.784 139.356C142.594 138.439 145.156 138.207 148.631 138.171V122.122C141.945 122.261 138.114 122.616 132.886 123.94" fill="#46B68E"/>
<path d="M141.553 105.289C140.862 104.331 139.666 103.754 138.506 103.754C137.516 103.754 136.557 104.115 135.82 104.759C135.015 105.464 134.484 106.613 134.484 107.679C134.484 108.653 134.923 109.688 135.598 110.378C136.382 111.213 137.48 111.681 138.599 111.681C139.965 111.681 141.362 110.831 141.991 109.59H137.14V107.566H144.708V107.818C144.708 111.207 141.852 113.767 138.537 113.767C135.222 113.767 132.329 111.161 132.329 107.757C132.329 104.352 135.175 101.668 138.506 101.668C140.862 101.668 143.249 103.064 144.13 105.294H141.553V105.289Z" fill="white"/>
<path d="M155.143 105.289C154.452 104.331 153.256 103.754 152.096 103.754C151.106 103.754 150.147 104.115 149.41 104.759C148.611 105.464 148.074 106.613 148.074 107.679C148.074 108.653 148.513 109.688 149.188 110.378C149.977 111.213 151.075 111.681 152.189 111.681C153.555 111.681 154.952 110.831 155.581 109.59H150.73V107.566H158.303V107.818C158.303 111.207 155.442 113.767 152.127 113.767C148.812 113.767 145.919 111.161 145.919 107.757C145.919 104.352 148.765 101.668 152.096 101.668C154.452 101.668 156.839 103.064 157.721 105.294H155.143V105.289Z" fill="white"/>
<path d="M160.108 101.885H162.257V111.393H168.728V113.484H160.108V101.885Z" fill="white"/>
</g>
</g>
<defs>
<clipPath id="clip0_1_2">
<rect width="300" height="200" fill="white"/>
</clipPath>
<clipPath id="clip1_1_2">
<rect width="89" height="107" fill="white" transform="translate(105 46)"/>
</clipPath>
</defs>
</svg>
